<svg width="20" height="24" viewBox="0 0 20 24" fill="none" xmlns="http://www.w3.org/2000/svg">
<path d="M4.99805 4.49219C3.6173 4.49219 2.49805 5.61135 2.49805 6.99219V8.65885V16.1589C2.49805 17.9997 3.99046 19.4922 5.83138 19.4922H14.1647C16.0056 19.4922 17.498 17.9997 17.498 16.1589V8.65885C17.498 8.19885 17.125 7.82552 16.6647 7.82552C16.6647 7.82552 14.2457 7.82552 12.498 7.82552C11.8691 7.82552 11.6668 7.62135 11.1699 6.62718C10.4168 5.12135 9.7858 4.49219 8.33138 4.49219H4.99805ZM4.99805 6.15885H8.33138C8.9603 6.15885 9.16263 6.36302 9.65954 7.35719C9.76829 7.57469 9.81338 7.64385 9.91988 7.82552C7.0483 7.82552 4.98555 7.82552 4.16471 7.82552V6.99219C4.16471 6.53219 4.5378 6.15885 4.99805 6.15885ZM8.33138 12.8255H11.6647C12.125 12.8255 12.498 13.1989 12.498 13.6589C12.498 14.1189 12.125 14.4922 11.6647 14.4922H8.33138C7.87113 14.4922 7.49805 14.1189 7.49805 13.6589C7.49805 13.1989 7.87113 12.8255 8.33138 12.8255Z" fill="black"/>
</svg>
