<svg fill="currentColor" color="inherit" font-size="inherit" viewBox="0 0 48 48" xmlns="http://www.w3.org/2000/svg" width="1em" height="1em"><path d="M22.7 2.44a2 2 0 0 1 2.63 0l19.63 17.05A2 2 0 0 1 43.65 23H33a1 1 0 0 0-1 1v6a2 2 0 0 1-2 2H18a2 2 0 0 1-2-2v-6a1 1 0 0 0-1-1H4.36a2 2 0 0 1-1.31-3.51L22.7 2.44ZM9.24 19H18a2 2 0 0 1 2 2v6a1 1 0 0 0 1 1h6a1 1 0 0 0 1-1v-6c0-1.1.9-2 2-2h8.37L24.62 7.25a1 1 0 0 0-1.29 0L9.23 19ZM16 36a1 1 0 0 1 1-1h14a1 1 0 0 1 1 1v2a1 1 0 0 1-1 1H17a1 1 0 0 1-1-1v-2ZM17 42a1 1 0 0 0-1 1v2a1 1 0 0 0 1 1h14a1 1 0 0 0 1-1v-2a1 1 0 0 0-1-1H17Z"></path></svg>