<svg width="20" height="24" viewBox="0 0 20 24" fill="none" xmlns="http://www.w3.org/2000/svg">
<path d="M4.99935 3.67969C3.15852 3.67969 1.66602 5.17134 1.66602 7.01134C1.66602 8.01967 2.10017 8.91221 2.8085 9.52304C2.10017 10.1339 1.66602 10.9997 1.66602 12.008V15.3397C1.66602 17.1789 3.15852 18.6797 4.99935 18.6797H10.8318C12.5635 18.6797 14.0027 17.3647 14.166 15.6772L16.8993 18.4364C17.4243 18.9614 18.3318 18.5797 18.3318 17.838V9.50966C18.3318 9.13883 18.101 8.84887 17.811 8.72887C17.521 8.60887 17.1618 8.64883 16.8993 8.9105C16.551 9.25883 15.2785 10.5838 14.1593 11.703C14.0535 10.6163 13.4527 9.6855 12.5568 9.158C13.061 8.57467 13.3318 7.84217 13.3318 7.01134C13.3318 5.17134 11.8393 3.67969 9.99851 3.67969C8.99018 3.67969 8.11018 4.14305 7.49935 4.85054C6.88768 4.14305 6.00768 3.67969 4.99935 3.67969ZM4.99935 5.34554C5.91935 5.34554 6.66602 6.09134 6.66602 7.01134C6.66602 7.93051 5.91935 8.67633 4.99935 8.67633C4.07852 8.67633 3.33268 7.93134 3.33268 7.01134C3.33268 6.09134 4.07852 5.34554 4.99935 5.34554ZM9.99851 5.34554C10.9193 5.34554 11.6652 6.09134 11.6652 7.01134C11.6652 7.93051 10.9193 8.67633 9.99851 8.67633C9.07851 8.67633 8.33268 7.93134 8.33268 7.01134C8.33268 6.09134 9.07851 5.34554 9.99851 5.34554Z" fill="black"/>
</svg>
