<svg fill="currentColor" iconName="IconTrashBinFill" class="css-6xix1i" viewBox="0 0 48 48" xmlns="http://www.w3.org/2000/svg" width="1em" height="1em"><path d="M32 6v2h11a1 1 0 0 1 1 1v2a1 1 0 0 1-1 1h-2.68L38.78 37c-.2 3.17-.29 4.76-.97 5.96a6 6 0 0 1-2.6 2.45c-1.24.6-2.83.6-6 .6H18.8c-3.18 0-4.77 0-6.01-.6a6 6 0 0 1-2.6-2.45c-.68-1.2-.78-2.79-.97-5.96L7.68 12H5a1 1 0 0 1-1-1V9a1 1 0 0 1 1-1h11V6a5 5 0 0 1 5-5h6a5 5 0 0 1 5 5ZM21 5a1 1 0 0 0-1 1v2h8V6a1 1 0 0 0-1-1h-6Zm-2.19 13.5a1 1 0 0 0-1 1v15a1 1 0 0 0 1 1h2.13a1 1 0 0 0 1-1v-15a1 1 0 0 0-1-1H18.8Zm7.25 1v15a1 1 0 0 0 1 1h2.13a1 1 0 0 0 1-1v-15a1 1 0 0 0-1-1h-2.13a1 1 0 0 0-1 1Z"></path></svg>