<svg fill="currentColor" iconName="IconPersonXFill" class="css-6xix1i" viewBox="0 0 48 48" xmlns="http://www.w3.org/2000/svg" width="1em" height="1em"><path d="M19 2.5a10 10 0 1 0 0 20 10 10 0 0 0 0-20ZM19 25.5c-10.94 0-17 7.92-17 14.44 0 3.56 2 3.56 9 3.56h12.82a14.94 14.94 0 0 1-1.66-17.77c-1-.15-2.05-.23-3.16-.23ZM24 33.5a11 11 0 1 1 21.99-.01A11 11 0 0 1 24 33.5Zm8.06-5.54a1 1 0 0 0-1.42 0l-1.18 1.18a1 1 0 0 0 0 1.41l2.95 2.95-2.95 2.95a1 1 0 0 0 0 1.41l1.18 1.18a1 1 0 0 0 1.41 0L35 36.1l2.95 2.94a1 1 0 0 0 1.41 0l1.18-1.18a1 1 0 0 0 0-1.41L37.6 33.5l2.94-2.94a1 1 0 0 0 0-1.42l-1.18-1.18a1 1 0 0 0-1.41 0L35 30.91l-2.94-2.95Z"></path></svg>