<svg fill="currentColor" font-size="16" color="Secondary" viewBox="0 0 48 48" xmlns="http://www.w3.org/2000/svg" width="1em" height="1em"><path d="M26.07 13.03a1 1 0 0 0-1-1h-2.15a1 1 0 0 0-1 1V26.4a1 1 0 0 0 1 1h2.15a1 1 0 0 0 1-1V13.03ZM22.02 35.39c.55.52 1.2.78 1.97.78.8 0 1.45-.26 1.98-.78.54-.52.81-1.17.81-1.94 0-.8-.27-1.45-.81-1.97a2.62 2.62 0 0 0-1.98-.82c-.77 0-1.42.27-1.97.82a2.67 2.67 0 0 0-.78 1.97c0 .77.26 1.42.78 1.94Z"></path><path d="M46 24a22 22 0 1 0-44 0 22 22 0 0 0 44 0Zm-4 0a18 18 0 1 1-36 0 18 18 0 0 1 36 0Z"></path></svg>