<svg fill="currentColor" iconName="IconPersonalizationFill" class="css-6xix1i" viewBox="0 0 48 48" xmlns="http://www.w3.org/2000/svg" width="1em" height="1em"><path d="M19.8 12.4a8.4 8.4 0 1 1-16.8 0 8.4 8.4 0 0 1 16.8 0ZM22.65 9.82a.3.3 0 0 0 .3.23 13.9 13.9 0 0 1 13.73 11.8c.03.23.13.43.29.6l3.23 3.23c.58.57 1.55.25 1.6-.56A18.9 18.9 0 0 0 22.2 5.06c-.78.03-1.16.94-.77 1.61.55.97.97 2.03 1.22 3.15ZM25.22 42.7c.78-.1 1.06-1.04.5-1.6l-3-3a1.04 1.04 0 0 0-.67-.3 13.9 13.9 0 0 1-13-13.86.3.3 0 0 0-.23-.29 11.47 11.47 0 0 1-3.15-1.22c-.67-.39-1.58-.01-1.6.76-.02.25-.02.5-.02.75A18.9 18.9 0 0 0 25.22 42.7ZM23.56 33.25a.87.87 0 0 0 0 1.23l9.26 9.26c.34.35.9.35 1.24 0l9.26-9.26a.87.87 0 0 0 0-1.23l-9.26-9.27a.87.87 0 0 0-1.24 0l-9.26 9.27Z"></path></svg>