<svg fill="currentColor" iconName="IconPersonAdvertiserFill" class="css-6xix1i" viewBox="0 0 48 48" xmlns="http://www.w3.org/2000/svg" width="1em" height="1em"><path d="M9 13a10 10 0 1 1 20 0 10 10 0 0 1-20 0ZM2 40.44C2 33.92 8.06 26 19 26c3.43 0 6.38.78 8.82 2.05-.52.98-.82 2.1-.82 3.28v5.95a7 7 0 0 0 4.79 6.64C30.54 44 28.97 44 27 44H11c-7 0-9 0-9-3.56ZM45.7 23.66c0-1.8-2.22-2.64-3.41-1.29l-4.84 5.49a2.3 2.3 0 0 1-1.73.77H34a2.7 2.7 0 0 0-2.7 2.7v5.95c0 1.49 1.2 2.7 2.7 2.7h1.83c.62 0 1.22.25 1.65.7l4.87 5.05a1.95 1.95 0 0 0 3.35-1.35V23.66Z"></path></svg>