<svg viewBox="0 0 24 24" xmlns="http://www.w3.org/2000/svg" width="16" height="16" role="img" focusable="false" data-icon="arrow-repeat" aria-hidden="true" fill="currentColor" will-change="auto" transform="rotate(0)"><path d="M12 3a9 9 0 0 0-5.594 1.938A1 1 0 1 0 7.656 6.5 6.97 6.97 0 0 1 12 5a7 7 0 0 1 7 7h-1a.5.5 0 0 0-.4.8l2 2.667a.5.5 0 0 0 .8 0l2-2.667a.5.5 0 0 0-.4-.8h-1a9 9 0 0 0-9-9M4.4 8.533a.5.5 0 0 0-.8 0l-2 2.667a.5.5 0 0 0 .4.8h1a9 9 0 0 0 9 9 9 9 0 0 0 5.594-1.938 1 1 0 1 0-1.25-1.562A6.96 6.96 0 0 1 12 19a7 7 0 0 1-7-7h1a.5.5 0 0 0 .4-.8z"></path></svg>