<svg fill="currentColor" class="css-1x6bo8q" viewBox="0 0 48 48" xmlns="http://www.w3.org/2000/svg" width="1em" height="1em"><path d="M12 4h4.4c.56 0 .84 0 1.05.1a1 1 0 0 1 .44.45c.11.21.11.49.11 1.05v1.1c0 .56 0 .84-.1 1.05a1 1 0 0 1-.45.44c-.21.11-.49.11-1.05.11H12A3.7 3.7 0 0 0 8.3 12v24a3.7 3.7 0 0 0 3.7 3.7h24a3.7 3.7 0 0 0 3.7-3.7v-4.4c0-.56 0-.84.1-1.05a1 1 0 0 1 .45-.44c.21-.11.49-.11 1.05-.11h1.1c.56 0 .84 0 1.05.1a1 1 0 0 1 .44.45c.11.21.11.49.11 1.05V36a8 8 0 0 1-8 8H12a8 8 0 0 1-8-8V12a8 8 0 0 1 8-8Z"></path><path d="M27.54 5.77c0-.56 0-.84.1-1.05a1 1 0 0 1 .44-.44c.22-.1.5-.1 1.06-.1h12.54c1.18 0 2.15.95 2.15 2.14v12.54c0 .56 0 .84-.11 1.06a1 1 0 0 1-.44.44c-.21.1-.5.1-1.05.1h-1.1c-.56 0-.84 0-1.06-.1a1 1 0 0 1-.43-.44c-.11-.22-.11-.5-.11-1.06v-7.35L26.65 24.4c-.4.4-.6.6-.82.67a1 1 0 0 1-.62 0c-.23-.08-.43-.28-.82-.67l-.78-.78c-.4-.4-.6-.6-.67-.82a1 1 0 0 1 0-.62c.08-.23.27-.43.67-.82L36.5 8.47h-7.35c-.56 0-.84 0-1.06-.1a1 1 0 0 1-.44-.44c-.1-.22-.1-.5-.1-1.06v-1.1Z"></path></svg>