<svg fill="currentColor" font-size="24px" viewBox="0 0 48 48" xmlns="http://www.w3.org/2000/svg" width="1em" height="1em"><path d="M11.45 18.62 19.5 24l-8.05 5.38A10 10 0 0 0 7 37.69V45a1 1 0 0 0 1 1h32a1 1 0 0 0 1-1v-7.3a10 10 0 0 0-4.45-8.32L28.5 24l8.05-5.38A10 10 0 0 0 41 10.31V3a1 1 0 0 0-1-1H8a1 1 0 0 0-1 1v7.3a10 10 0 0 0 4.45 8.32ZM37 6v4.3a6 6 0 0 1-2.67 5L28.78 19h-9.56l-5.55-3.7a6 6 0 0 1-2.67-5V6h26Zm0 36H11v-4h26v4Zm-24.73-8a6 6 0 0 1 1.4-1.3L24 25.8l10.33 6.9a6 6 0 0 1 1.4 1.3H12.27Z"></path></svg>