<svg fill="currentColor" class="css-1mwrjo2-StyledMediaIcon e1823izs20" viewBox="0 0 48 48" xmlns="http://www.w3.org/2000/svg" width="1em" height="1em"><path d="M16.8 8c-2.3 0-3.8 0-4.93.1a4.56 4.56 0 0 0-1.69.34 4 4 0 0 0-1.74 1.74c-.1.2-.26.6-.34 1.7C8 13 8 14.48 8 16.8v8.68l.87-.86c.76-.76 1.42-1.4 2-1.9a6.12 6.12 0 0 1 2.1-1.23 6 6 0 0 1 3.76.05c.81.28 1.47.75 2.07 1.29.57.5 1.2 1.17 1.95 1.95l14.6 15.17.78-.05a4.56 4.56 0 0 0 1.69-.34 4 4 0 0 0 1.74-1.74c.1-.2.26-.6.34-1.7.1-1.12.1-2.61.1-4.92V16.8c0-2.3 0-3.8-.1-4.93a4.56 4.56 0 0 0-.34-1.69 4 4 0 0 0-1.74-1.74c-.2-.1-.6-.26-1.7-.34C35 8 33.52 8 31.2 8H16.8ZM8 31.11v.09c0 2.3 0 3.8.1 4.93.08 1.09.24 1.49.34 1.69a4 4 0 0 0 1.74 1.74c.2.1.6.26 1.7.34 1.12.1 2.61.1 4.92.1h13.07L17.9 27.6a34.4 34.4 0 0 0-1.77-1.78 2.29 2.29 0 0 0-.71-.5 2 2 0 0 0-1.25-.02c-.11.04-.31.12-.74.48-.44.37-.98.9-1.81 1.73L8 31.11ZM4 16.8c0-4.48 0-6.72.87-8.43a8 8 0 0 1 3.5-3.5C10.07 4 12.32 4 16.8 4h14.4c4.48 0 6.72 0 8.43.87a8 8 0 0 1 3.5 3.5c.87 1.7.87 3.95.87 8.43v14.4c0 4.48 0 6.72-.87 8.43a8 8 0 0 1-3.5 3.5c-1.7.87-3.95.87-8.43.87H16.8c-4.48 0-6.72 0-8.43-.87a8 8 0 0 1-3.5-3.5C4 37.93 4 35.68 4 31.2V16.8ZM31 12a5 5 0 1 0 0 10 5 5 0 0 0 0-10Z"></path></svg>