<svg fill="currentColor" iconName="IconPersonPulseFill" class="css-6xix1i" viewBox="0 0 48 48" xmlns="http://www.w3.org/2000/svg" width="1em" height="1em"><path d="M18.2 3c-5.28 0-9.57 4.48-9.57 10s4.29 10 9.58 10 9.58-4.48 9.58-10-4.3-10-9.58-10ZM18.2 26C7.73 26 1.93 33.92 1.93 40.44 1.92 44 3.83 44 10.54 44h8.63v-7.71c0-2.21 1.71-4 3.83-4h2.82l1.39-3.93a17.33 17.33 0 0 0-9-2.36Z"></path><path d="M34.61 29.47A1.94 1.94 0 0 0 32.85 28c-.84-.04-1.6.49-1.89 1.3L28.5 36.3H24a1 1 0 0 0-1 1v2a1 1 0 0 0 1 1h5.82c.8 0 1.52-.53 1.8-1.31l.86-2.44 2.36 8.99c.2.79.85 1.37 1.63 1.46a1.9 1.9 0 0 0 1.9-1.05l2.9-5.65H45a1 1 0 0 0 1-1v-2a1 1 0 0 0-1-1h-4.88c-.71 0-1.36.4-1.7 1.05l-1.16 2.28-2.65-10.15Z"></path></svg>